<?xml version="1.0" standalone="no"?>
<!DOCTYPE svg PUBLIC "-//W3C//DTD SVG 20010904//EN"
 "http://www.w3.org/TR/2001/REC-SVG-20010904/DTD/svg10.dtd">
<svg version="1.0" xmlns="http://www.w3.org/2000/svg"
 width="512.000000pt" height="512.000000pt" viewBox="0 0 512.000000 512.000000"
 preserveAspectRatio="xMidYMid meet">
<metadata>
Created by potrace 1.11, written by Peter Selinger 2001-2013
</metadata>
<g transform="translate(0.000000,512.000000) scale(0.100000,-0.100000)"
fill="#000000" stroke="none">
<path d="M3207 5105 c-86 -32 -134 -90 -152 -184 -28 -138 44 -269 164 -301
20 -5 79 -11 131 -14 173 -9 299 -36 444 -93 480 -190 791 -627 812 -1143 6
-141 28 -196 104 -251 48 -35 101 -49 175 -44 98 6 167 50 211 135 21 40 28
200 13 310 -5 36 -11 82 -14 103 -7 59 -51 224 -80 307 -88 244 -229 465 -418
654 -86 86 -282 246 -301 246 -3 0 -29 15 -58 34 -144 91 -399 188 -583 222
-179 32 -390 41 -448 19z"/>
<path d="M3220 4084 c-97 -29 -149 -88 -167 -190 -17 -90 2 -164 57 -226 47
-54 95 -75 187 -83 105 -9 161 -31 213 -85 50 -52 66 -91 75 -189 14 -150 104
-235 250 -235 91 0 138 17 190 69 51 52 70 111 69 211 -3 244 -151 493 -372
623 -157 94 -381 141 -502 105z"/>
<path d="M1979 3811 c-39 -13 -67 -29 -97 -59 -48 -46 -165 -154 -240 -222
-40 -36 -100 -92 -135 -125 -35 -33 -109 -103 -166 -155 -57 -52 -122 -113
-145 -135 -24 -22 -96 -89 -162 -150 -65 -60 -150 -140 -189 -177 -39 -37 -81
-76 -93 -86 -12 -11 -75 -69 -139 -128 -65 -60 -141 -131 -171 -159 -30 -27
-73 -68 -96 -90 -23 -22 -95 -88 -158 -148 -139 -128 -161 -167 -162 -272 0
-93 30 -157 94 -197 58 -37 100 -48 170 -43 74 4 119 26 176 82 l44 45 0 -786
c0 -432 1 -789 1 -793 1 -5 10 -30 21 -58 23 -59 58 -99 113 -128 l40 -22
1360 0 1360 0 49 25 c61 31 107 92 121 160 6 30 10 346 10 825 l-1 775 61 -59
c82 -80 133 -105 215 -106 82 0 139 31 197 107 50 66 62 101 58 168 -5 67 -37
120 -118 195 -35 33 -129 121 -207 195 -79 74 -160 151 -181 170 -20 19 -95
90 -166 157 -70 66 -148 140 -173 163 -25 23 -106 99 -180 170 -74 70 -153
144 -175 164 -22 21 -74 70 -116 109 -179 171 -367 347 -399 377 -19 18 -67
63 -106 100 -65 63 -117 99 -154 107 -39 9 -138 12 -161 4z m83 -610 c-1 -7 1
-10 6 -7 5 3 36 -20 70 -52 33 -31 102 -95 154 -142 51 -47 127 -116 168 -155
91 -85 293 -272 336 -312 176 -162 240 -221 256 -237 17 -19 18 -61 18 -902
l0 -883 -235 0 c-181 -1 -235 2 -235 12 0 9 -2 9 -8 -1 -7 -9 -43 -12 -148
-10 l-139 3 -1 275 c-1 297 -6 332 -53 397 -44 61 -107 88 -206 88 -88 0 -137
-19 -187 -72 -60 -62 -63 -81 -66 -400 l-3 -292 -192 0 c-138 0 -194 3 -199
12 -6 9 -8 9 -8 0 0 -10 -43 -13 -183 -13 l-183 0 0 885 1 886 45 41 c25 23
94 86 154 142 60 56 120 112 135 125 34 31 97 89 256 237 72 66 150 138 174
160 24 21 65 59 91 84 130 123 163 151 173 147 7 -3 11 -10 9 -16z"/>
</g>
</svg>
